<svg id="svg" version="1.1" width="518" height="500" xmlns="http://www.w3.org/2000/svg" xmlns:xlink="http://www.w3.org/1999/xlink" style="display: block;"><g id="svgg"><path id="path0" d="M102.814 122.978 C 102.260 123.532,101.931 126.973,101.931 132.206 L 101.931 140.550 160.811 140.352 L 219.691 140.154 219.912 132.627 C 220.265 120.603,227.804 121.960,161.078 122.032 C 119.118 122.078,103.460 122.332,102.814 122.978 " stroke="none" fill="#000000" fill-rule="evenodd"></path><path id="path1" d="M100.321 119.977 C 97.944 123.876,98.133 139.956,100.576 141.668 C 102.521 143.030,222.394 143.495,222.394 142.140 C 222.394 140.664,217.659 140.541,160.941 140.541 L 101.931 140.541 101.931 132.141 C 101.931 126.171,102.222 123.499,102.939 122.904 C 103.643 122.320,121.483 122.061,162.057 122.048 C 222.351 122.027,222.394 122.025,222.394 119.073 C 222.394 117.521,214.019 117.305,158.832 117.430 L 101.795 117.559 100.321 119.977 " stroke="none" fill="#464646" fill-rule="evenodd"></path><path id="path2" d="M125.352 9.266 C 117.636 9.479,111.165 9.826,110.972 10.039 C 109.775 11.356,108.041 15.820,108.038 17.593 C 108.036 18.747,108.035 27.475,108.036 36.988 C 108.039 58.435,107.678 59.389,99.529 59.435 C 92.062 59.477,87.864 60.317,87.464 61.848 C 87.077 63.325,81.651 64.865,76.832 64.865 C 74.905 64.865,73.833 65.384,72.816 66.810 C 70.399 70.199,69.169 71.410,67.025 72.510 C 65.878 73.099,64.593 74.573,64.170 75.786 C 63.747 77.000,62.846 77.992,62.167 77.992 C 59.939 77.992,57.143 81.572,57.143 84.424 C 57.143 88.632,56.265 91.892,55.132 91.892 C 51.170 91.892,50.958 94.623,51.031 144.686 C 51.100 192.563,51.083 192.851,47.948 195.688 C 47.059 196.492,46.332 197.560,46.332 198.060 C 46.332 198.561,45.898 199.004,45.367 199.045 C 33.040 199.999,32.729 210.025,44.944 212.684 C 46.092 212.934,47.936 213.918,49.041 214.870 L 51.052 216.602 50.991 263.937 C 50.925 314.507,51.071 316.651,54.776 319.691 C 55.553 320.328,56.789 322.705,57.523 324.974 C 58.296 327.361,59.812 329.948,61.123 331.115 C 62.368 332.225,64.417 334.933,65.675 337.133 C 67.692 340.658,68.389 341.239,71.550 342.035 C 76.070 343.173,79.715 345.032,79.167 345.920 C 78.557 346.906,82.461 349.368,86.460 350.520 C 88.356 351.066,91.128 352.519,92.620 353.749 L 95.333 355.985 201.289 355.985 C 271.093 355.985,307.408 355.721,307.722 355.212 C 307.984 354.788,308.820 354.440,309.578 354.440 C 310.337 354.440,311.597 353.734,312.378 352.871 C 313.158 352.008,315.287 350.927,317.107 350.469 C 318.927 350.010,320.817 349.153,321.307 348.563 C 321.796 347.973,322.696 347.490,323.306 347.490 C 323.916 347.490,324.214 347.164,323.967 346.764 C 323.080 345.330,326.842 342.857,329.910 342.857 C 332.834 342.857,336.680 340.254,336.680 338.274 C 336.680 337.838,337.552 337.262,338.619 336.994 C 341.021 336.392,343.629 332.859,343.629 330.207 C 343.629 328.975,344.317 327.770,345.441 327.034 C 348.201 325.225,350.639 317.329,350.747 309.846 C 350.761 308.890,351.002 308.108,351.282 308.108 C 351.563 308.108,351.804 307.500,351.817 306.757 C 351.831 306.014,352.117 304.580,352.452 303.571 C 352.845 302.387,352.784 301.908,352.278 302.221 C 351.802 302.515,351.660 302.074,351.917 301.094 C 352.199 300.016,352.526 299.787,352.906 300.403 C 353.236 300.937,353.475 300.442,353.475 299.228 C 353.475 297.747,353.277 297.440,352.799 298.180 C 351.741 299.820,350.420 297.344,351.092 294.981 C 352.007 291.764,352.270 229.344,351.368 229.344 C 350.934 229.344,350.579 228.301,350.579 227.027 C 350.579 225.753,350.840 224.752,351.158 224.802 C 352.727 225.050,353.466 224.587,353.462 223.359 C 353.445 219.167,353.892 217.825,356.030 215.637 C 357.330 214.308,360.197 212.625,362.401 211.897 C 367.901 210.081,369.702 208.764,370.279 206.138 C 371.316 201.418,370.376 200.597,362.832 199.622 C 359.631 199.209,359.024 198.796,357.066 195.698 C 354.057 190.937,350.881 190.057,348.651 193.367 C 347.728 194.736,345.963 196.021,344.388 196.470 C 342.909 196.892,341.171 197.885,340.525 198.676 C 339.387 200.072,339.282 200.061,337.069 198.320 L 334.787 196.525 201.046 196.525 L 67.306 196.525 65.457 198.263 C 63.143 200.436,59.459 200.628,59.459 198.575 C 59.459 197.792,58.770 196.527,57.927 195.764 C 55.298 193.384,53.475 189.665,54.124 188.005 C 54.451 187.170,54.742 168.136,54.772 145.708 C 54.835 98.575,55.795 88.281,60.259 86.864 C 61.862 86.355,63.637 83.840,64.341 81.081 C 64.612 80.019,66.057 78.366,67.552 77.406 C 69.047 76.447,70.270 75.184,70.270 74.601 C 70.270 74.018,72.109 72.641,74.356 71.542 C 76.603 70.442,79.183 68.539,80.090 67.312 C 82.991 63.388,85.070 63.320,202.607 63.320 C 325.951 63.320,319.587 62.999,327.463 69.623 C 329.401 71.253,331.376 72.587,331.851 72.587 C 332.326 72.587,334.037 74.237,335.653 76.255 C 337.269 78.272,339.398 80.707,340.384 81.666 C 341.370 82.625,342.893 85.057,343.768 87.071 C 344.644 89.086,346.274 91.950,347.390 93.436 L 349.421 96.139 349.633 140.135 C 349.764 167.410,350.131 184.416,350.598 184.884 C 351.088 185.373,351.397 184.300,351.481 181.815 C 351.595 178.462,351.648 178.348,351.914 180.888 C 352.080 182.481,352.543 183.784,352.942 183.784 C 353.384 183.784,353.668 170.343,353.668 149.421 C 353.668 119.391,353.522 115.058,352.510 115.058 C 351.670 115.058,351.351 114.195,351.351 111.924 C 351.351 110.200,351.662 108.981,352.043 109.216 C 352.874 109.730,353.668 107.880,353.668 105.432 C 353.668 104.345,353.107 103.508,352.223 103.277 C 351.005 102.959,350.690 101.822,350.219 96.044 C 349.700 89.674,348.016 84.827,346.046 84.031 C 345.709 83.895,344.236 81.722,342.774 79.202 C 341.311 76.682,339.158 74.076,337.990 73.411 C 336.823 72.745,335.268 70.999,334.536 69.531 C 333.267 66.985,332.871 66.791,326.062 65.379 C 320.071 64.136,318.919 63.660,318.919 62.426 C 318.919 60.572,318.456 60.436,310.205 59.868 C 299.816 59.153,295.946 56.760,294.316 50.044 C 293.210 45.489,293.131 34.469,294.208 35.135 C 294.633 35.398,294.981 34.897,294.981 34.022 C 294.981 33.148,294.633 32.432,294.208 32.432 C 293.784 32.432,293.376 30.956,293.303 29.151 C 293.229 27.346,292.959 32.184,292.702 39.904 C 292.084 58.512,291.964 58.656,276.925 58.821 C 263.336 58.971,263.345 58.981,263.276 42.163 C 263.251 36.174,262.978 29.884,262.669 28.185 C 262.278 26.044,262.486 24.082,263.344 21.791 C 265.439 16.195,265.886 15.995,276.153 16.080 C 288.042 16.177,291.411 17.482,292.388 22.365 C 292.650 23.673,293.162 24.927,293.527 25.153 C 293.892 25.378,293.968 24.983,293.696 24.275 C 293.277 23.181,293.443 23.115,294.797 23.840 C 297.829 25.463,298.002 19.376,295.050 14.920 C 293.738 12.939,292.664 11.067,292.664 10.761 C 292.664 9.494,289.349 9.153,277.992 9.250 C 257.047 9.430,258.232 7.937,258.585 33.699 C 258.858 53.617,258.371 56.790,254.746 58.730 C 253.840 59.215,234.685 59.416,202.027 59.283 L 150.730 59.073 147.373 56.643 L 144.015 54.212 143.629 40.040 C 143.182 23.612,142.091 24.977,142.074 41.988 C 142.057 58.120,141.439 58.787,126.357 58.975 C 112.800 59.144,113.099 59.630,112.458 36.402 C 111.918 16.867,112.495 16.001,125.996 16.084 C 137.825 16.156,140.099 16.939,141.855 21.538 L 143.181 25.008 144.599 21.756 C 145.861 18.862,145.895 18.273,144.910 16.395 C 144.301 15.235,143.434 13.352,142.982 12.210 C 141.736 9.059,140.486 8.850,125.352 9.266 M103.328 91.699 C 103.092 94.562,103.048 94.597,99.460 94.828 C 94.560 95.144,94.826 92.839,94.734 135.812 C 94.645 177.559,94.538 176.493,98.878 177.226 C 100.626 177.522,102.407 178.412,103.031 179.302 C 104.095 180.822,104.152 180.802,105.343 178.499 C 106.972 175.349,107.087 175.507,102.699 174.903 C 97.827 174.233,97.762 174.018,97.717 158.436 C 97.688 148.046,97.848 146.481,99.031 145.612 C 101.247 143.985,112.897 143.653,166.795 143.680 C 227.917 143.710,225.071 143.733,224.555 143.217 C 224.328 142.990,196.730 142.822,163.226 142.843 C 109.037 142.877,102.118 142.748,100.575 141.667 C 98.122 139.949,97.945 123.873,100.337 119.951 L 101.827 117.508 162.555 117.451 C 195.955 117.419,223.691 117.129,224.190 116.805 C 224.688 116.481,196.835 116.042,162.293 115.830 C 89.185 115.381,96.870 116.559,97.577 105.910 C 98.038 98.962,98.812 97.297,101.578 97.297 C 102.910 97.297,103.475 96.736,103.847 95.045 C 104.638 91.444,102.638 91.523,202.638 91.120 C 278.227 90.815,298.395 90.531,298.649 89.768 C 298.905 89.000,279.087 88.803,201.269 88.803 L 103.568 88.803 103.328 91.699 M302.085 93.591 C 299.734 95.941,303.001 99.586,306.472 98.485 C 308.655 97.792,308.534 96.826,305.985 94.582 C 303.515 92.408,303.318 92.358,302.085 93.591 M308.858 99.807 C 308.235 127.148,308.822 172.621,309.801 172.813 C 312.797 173.401,312.926 171.894,312.914 136.396 C 312.905 112.258,312.642 101.643,312.022 100.485 C 311.069 98.705,308.894 98.239,308.858 99.807 M351.911 122.187 C 351.739 123.575,351.595 122.625,351.591 120.077 C 351.586 117.529,351.727 116.393,351.903 117.554 C 352.079 118.714,352.083 120.799,351.911 122.187 M301.737 174.579 C 299.931 175.631,300.028 177.360,301.951 178.389 C 303.744 179.349,308.108 176.841,308.108 174.851 C 308.108 173.544,303.828 173.362,301.737 174.579 M292.664 181.853 L 289.189 182.860 293.724 182.936 C 297.672 183.002,298.134 182.862,297.297 181.853 C 296.769 181.216,296.292 180.729,296.237 180.771 C 296.183 180.812,294.575 181.300,292.664 181.853 M110.214 182.797 C 111.585 182.967,114.018 182.970,115.620 182.803 C 117.222 182.636,116.100 182.496,113.127 182.493 C 110.154 182.489,108.844 182.626,110.214 182.797 M358.971 202.447 C 360.761 203.721,360.766 203.761,359.349 205.692 C 356.110 210.109,348.961 210.335,346.529 206.097 C 343.592 200.980,353.017 198.215,358.971 202.447 M57.194 201.572 C 58.015 202.011,58.682 203.141,58.675 204.081 C 58.639 209.281,46.371 210.654,44.119 205.710 C 42.227 201.558,51.616 198.587,57.194 201.572 M344.989 212.048 C 349.508 212.952,349.421 211.912,349.421 264.789 L 349.421 313.127 347.375 316.216 C 346.250 317.915,344.860 320.674,344.287 322.347 C 343.713 324.021,341.635 327.003,339.669 328.974 C 337.703 330.945,335.860 333.296,335.574 334.198 C 335.288 335.099,333.912 336.250,332.517 336.754 C 331.122 337.258,329.316 338.670,328.504 339.892 C 326.936 342.249,324.855 343.048,312.787 345.933 C 305.402 347.698,99.189 348.442,93.877 346.723 C 92.573 346.301,88.565 345.200,84.971 344.277 C 80.801 343.207,77.785 341.948,76.635 340.798 C 75.644 339.807,74.588 338.981,74.289 338.964 C 73.990 338.946,72.008 337.211,69.884 335.109 C 67.761 333.007,65.768 331.285,65.457 331.281 C 65.146 331.277,64.043 329.602,63.008 327.558 C 61.972 325.514,60.540 323.356,59.825 322.763 C 55.533 319.201,54.828 310.646,54.863 262.548 C 54.894 219.568,55.179 214.364,57.600 212.594 C 59.046 211.537,339.765 211.003,344.989 212.048 " stroke="none" fill="#717171" fill-rule="evenodd"></path><path id="path3" d="M117.270 16.120 C 113.051 17.539,112.053 21.746,112.458 36.402 C 113.099 59.630,112.800 59.144,126.357 58.975 C 141.511 58.786,142.015 58.224,142.165 41.313 C 142.221 34.942,142.504 28.687,142.792 27.413 C 143.685 23.470,141.017 18.161,137.585 17.051 C 134.942 16.197,119.188 15.474,117.270 16.120 M266.160 17.033 C 263.781 18.962,262.015 24.602,262.669 28.185 C 262.978 29.884,263.251 36.174,263.276 42.163 C 263.345 58.981,263.336 58.971,276.925 58.821 C 292.014 58.655,292.074 58.583,292.648 39.530 C 293.201 21.191,292.761 19.225,287.640 17.133 C 283.949 15.625,267.988 15.551,266.160 17.033 M120.736 25.885 C 120.212 27.252,118.315 27.925,117.717 26.956 C 116.853 25.558,117.991 24.042,119.590 24.460 C 120.465 24.689,120.959 25.304,120.736 25.885 M269.769 26.382 C 268.598 27.676,268.352 27.711,267.766 26.664 C 266.839 25.007,267.654 24.004,269.530 24.495 C 271.029 24.887,271.040 24.977,269.769 26.382 M87.418 64.273 C 82.510 64.923,81.571 65.310,80.113 67.281 C 79.194 68.525,76.603 70.442,74.356 71.542 C 72.109 72.641,70.270 74.018,70.270 74.601 C 70.270 75.184,69.047 76.447,67.552 77.406 C 66.057 78.366,64.612 80.019,64.341 81.081 C 63.637 83.840,61.862 86.355,60.259 86.864 C 55.795 88.281,54.835 98.575,54.772 145.708 C 54.742 168.136,54.451 187.170,54.124 188.005 C 53.475 189.665,55.298 193.384,57.927 195.764 C 58.770 196.527,59.459 197.792,59.459 198.575 C 59.459 200.628,63.143 200.436,65.457 198.263 L 67.306 196.525 201.046 196.525 L 334.787 196.525 337.069 198.320 C 339.282 200.061,339.387 200.072,340.525 198.676 C 341.171 197.885,342.880 196.900,344.323 196.488 C 350.306 194.782,350.025 197.403,349.861 144.798 C 349.708 95.716,349.762 96.729,347.061 93.050 C 346.126 91.776,344.644 89.086,343.768 87.071 C 342.893 85.057,341.370 82.625,340.384 81.666 C 339.398 80.707,337.269 78.272,335.653 76.255 C 334.037 74.237,332.326 72.587,331.851 72.587 C 331.376 72.587,329.401 71.253,327.463 69.623 C 322.682 65.602,321.702 65.163,315.296 64.176 C 308.170 63.078,95.762 63.169,87.418 64.273 M298.649 89.768 C 298.395 90.531,278.227 90.815,202.638 91.120 C 102.638 91.523,104.638 91.444,103.847 95.045 C 103.475 96.736,102.910 97.297,101.578 97.297 C 97.992 97.297,95.471 110.141,98.319 113.900 C 99.662 115.672,181.052 116.452,239.582 115.253 C 255.194 114.933,268.780 114.944,269.774 115.276 C 275.680 117.253,276.658 139.852,270.969 142.896 C 269.850 143.496,246.856 143.731,192.415 143.701 C 113.357 143.658,101.359 143.903,99.031 145.612 C 97.848 146.481,97.688 148.046,97.717 158.436 C 97.762 174.018,97.827 174.233,102.699 174.903 C 107.087 175.507,106.972 175.349,105.343 178.499 C 104.152 180.802,104.095 180.822,103.031 179.302 C 102.407 178.412,100.626 177.522,98.878 177.226 C 94.538 176.493,94.645 177.559,94.734 135.812 C 94.826 92.839,94.560 95.144,99.460 94.828 C 103.048 94.597,103.092 94.562,103.328 91.699 L 103.568 88.803 201.269 88.803 C 279.087 88.803,298.905 89.000,298.649 89.768 M305.985 94.582 C 308.534 96.826,308.655 97.792,306.472 98.485 C 303.001 99.586,299.734 95.941,302.085 93.591 C 303.318 92.358,303.515 92.408,305.985 94.582 M300.776 101.267 L 303.475 103.723 303.475 135.951 L 303.475 168.180 300.745 170.576 C 299.244 171.895,297.593 172.977,297.077 172.982 C 264.709 173.294,108.258 172.703,105.947 172.260 C 101.029 171.315,100.439 170.065,100.411 160.521 C 100.382 150.902,100.898 147.678,102.612 146.783 C 103.299 146.424,140.926 145.932,186.227 145.690 C 275.406 145.214,272.304 145.375,275.132 141.059 C 278.016 136.657,276.451 119.097,272.874 115.738 C 271.179 114.145,271.058 114.143,187.519 114.240 C 91.761 114.352,100.386 115.043,100.386 107.255 C 100.386 97.476,89.063 98.414,204.444 98.634 L 298.078 98.812 300.776 101.267 M312.022 100.485 C 312.642 101.643,312.905 112.258,312.914 136.396 C 312.926 171.894,312.797 173.401,309.801 172.813 C 308.822 172.621,308.235 127.148,308.858 99.807 C 308.894 98.239,311.069 98.705,312.022 100.485 M89.729 132.563 L 89.103 140.154 88.476 132.646 C 87.816 124.730,88.265 121.250,89.631 123.683 C 90.065 124.457,90.104 128.009,89.729 132.563 M308.108 174.851 C 308.108 176.841,303.744 179.349,301.951 178.389 C 298.671 176.634,300.897 173.813,305.598 173.769 C 307.272 173.753,308.108 174.113,308.108 174.851 M297.297 181.853 C 298.134 182.862,297.672 183.002,293.724 182.936 L 289.189 182.860 292.664 181.853 C 294.575 181.300,296.183 180.812,296.237 180.771 C 296.292 180.729,296.769 181.216,297.297 181.853 M115.620 182.803 C 114.018 182.970,111.585 182.967,110.214 182.797 C 108.844 182.626,110.154 182.489,113.127 182.493 C 116.100 182.496,117.222 182.636,115.620 182.803 M62.457 190.018 C 61.286 190.742,60.021 190.155,60.630 189.170 C 60.863 188.793,61.593 188.691,62.252 188.944 C 63.188 189.303,63.233 189.538,62.457 190.018 M350.579 200.642 C 344.137 201.252,344.320 207.823,350.810 208.919 C 356.518 209.884,362.622 205.043,358.971 202.447 C 356.748 200.867,354.136 200.305,350.579 200.642 M44.492 202.216 C 42.799 204.087,44.176 207.539,46.886 208.219 C 52.838 209.713,58.651 207.673,58.675 204.081 C 58.699 200.610,47.302 199.111,44.492 202.216 M57.600 212.594 C 55.179 214.364,54.894 219.568,54.863 262.548 C 54.828 310.646,55.533 319.201,59.825 322.763 C 60.540 323.356,61.972 325.514,63.008 327.558 C 64.043 329.602,65.146 331.277,65.457 331.281 C 65.768 331.285,67.761 333.007,69.884 335.109 C 72.008 337.211,73.990 338.946,74.289 338.964 C 74.588 338.981,75.644 339.807,76.635 340.798 C 77.785 341.948,80.801 343.207,84.971 344.277 C 88.565 345.200,92.573 346.301,93.877 346.723 C 99.189 348.442,305.402 347.698,312.787 345.933 C 324.855 343.048,326.936 342.249,328.504 339.892 C 329.316 338.670,331.122 337.258,332.517 336.754 C 333.912 336.250,335.288 335.099,335.574 334.198 C 335.860 333.296,337.703 330.945,339.669 328.974 C 341.635 327.003,343.713 324.021,344.287 322.347 C 344.860 320.674,346.250 317.915,347.375 316.216 L 349.421 313.127 349.421 264.789 C 349.421 211.912,349.508 212.952,344.989 212.048 C 339.765 211.003,59.046 211.537,57.600 212.594 " stroke="none" fill="#a2a2a2" fill-rule="evenodd"></path><path id="path4" d="M117.645 25.119 C 117.079 26.594,117.981 27.814,119.270 27.320 C 121.052 26.636,121.247 24.894,119.590 24.460 C 118.688 24.224,117.884 24.497,117.645 25.119 M267.527 24.777 C 266.452 26.516,268.391 27.904,269.769 26.382 C 271.040 24.977,271.029 24.887,269.530 24.495 C 268.664 24.268,267.762 24.395,267.527 24.777 M107.597 98.690 C 102.470 99.063,100.386 101.539,100.386 107.255 C 100.386 115.043,91.761 114.352,187.519 114.240 C 271.058 114.143,271.179 114.145,272.874 115.738 C 276.451 119.097,278.016 136.657,275.132 141.059 C 272.304 145.375,275.406 145.214,186.227 145.690 C 140.926 145.932,103.299 146.424,102.612 146.783 C 100.898 147.678,100.382 150.902,100.411 160.521 C 100.439 170.065,101.029 171.315,105.947 172.260 C 108.258 172.703,264.709 173.294,297.077 172.982 C 297.593 172.977,299.244 171.895,300.745 170.576 L 303.475 168.180 303.475 135.951 L 303.475 103.723 300.776 101.267 L 298.078 98.812 204.444 98.634 C 152.946 98.536,109.365 98.561,107.597 98.690 M297.348 102.730 C 299.449 103.854,299.714 168.612,297.620 169.415 C 296.032 170.025,110.145 170.013,106.457 169.403 L 103.648 168.938 103.284 161.110 C 102.636 147.185,97.688 148.190,166.338 148.293 C 204.987 148.351,221.985 148.122,223.092 147.530 C 224.143 146.967,232.427 146.703,247.850 146.741 C 279.900 146.820,279.911 146.813,279.349 129.730 C 278.950 117.606,278.892 117.420,274.652 114.543 L 271.429 112.355 187.259 111.969 L 103.089 111.583 103.089 107.336 L 103.089 103.089 106.178 102.619 C 111.844 101.758,295.730 101.864,297.348 102.730 M88.379 123.765 C 88.088 124.520,88.132 128.516,88.476 132.646 L 89.103 140.154 89.729 132.563 C 90.346 125.080,89.641 120.488,88.379 123.765 M60.630 189.170 C 60.021 190.155,61.286 190.742,62.457 190.018 C 63.233 189.538,63.188 189.303,62.252 188.944 C 61.593 188.691,60.863 188.793,60.630 189.170 " stroke="none" fill="#c8c8c8" fill-rule="evenodd"></path><path id="path5" d="M106.178 102.619 L 103.089 103.089 103.089 107.336 L 103.089 111.583 187.259 111.969 L 271.429 112.355 274.652 114.543 C 278.892 117.420,278.950 117.606,279.349 129.730 C 279.911 146.813,279.900 146.820,247.850 146.741 C 232.427 146.703,224.143 146.967,223.092 147.530 C 221.985 148.122,204.987 148.351,166.338 148.293 C 97.688 148.190,102.636 147.185,103.284 161.110 L 103.648 168.938 106.457 169.403 C 110.145 170.013,296.032 170.025,297.620 169.415 C 299.714 168.612,299.449 103.854,297.348 102.730 C 295.730 101.864,111.844 101.758,106.178 102.619 " stroke="none" fill="#ffffff" fill-rule="evenodd"></path><path id="path6" d="M220.473 121.815 C 219.141 125.140,219.628 140.537,221.080 140.999 C 223.947 141.911,224.710 140.018,224.710 132.002 C 224.710 122.218,222.470 116.831,220.473 121.815 " stroke="none" fill="#770000" fill-rule="evenodd"></path><path id="path7" d="M264.286 117.933 C 262.905 118.104,261.776 118.570,261.776 118.968 C 261.776 119.392,255.800 119.691,247.344 119.691 C 239.406 119.691,230.979 120.090,228.618 120.577 L 224.324 121.463 224.324 131.000 L 224.324 140.536 246.911 140.538 L 269.498 140.541 269.498 129.426 C 269.498 119.060,268.781 115.733,266.925 117.498 C 266.854 117.566,265.666 117.762,264.286 117.933 " stroke="none" fill="#ff0000" fill-rule="evenodd"></path><path id="path8" d="M246.718 115.071 C 223.705 115.512,221.174 115.986,222.513 119.605 C 223.103 121.200,223.504 121.342,226.068 120.864 C 227.657 120.568,236.342 120.158,245.367 119.953 C 254.392 119.749,261.776 119.296,261.776 118.948 C 261.776 118.216,267.100 117.437,268.533 117.960 C 269.244 118.219,269.498 121.237,269.498 129.426 L 269.498 140.541 246.378 140.541 C 224.407 140.541,220.918 140.862,222.765 142.715 C 223.810 143.764,267.390 144.175,270.015 143.161 C 276.688 140.584,276.326 117.353,269.580 115.288 C 268.473 114.949,258.185 114.852,246.718 115.071 " stroke="none" fill="#ff4344" fill-rule="evenodd"></path></g></svg>